<?xml version="1.0" encoding="utf-8"?>
<!-- Generator: Adobe Illustrator 17.1.0, SVG Export Plug-In . SVG Version: 6.00 Build 0)  -->
<!DOCTYPE svg PUBLIC "-//W3C//DTD SVG 1.1//EN" "http://www.w3.org/Graphics/SVG/1.1/DTD/svg11.dtd">
<svg version="1.1" id="Layer_1" xmlns="http://www.w3.org/2000/svg" xmlns:xlink="http://www.w3.org/1999/xlink" x="0px" y="0px"
	 viewBox="27 232 907.1 107" enable-background="new 27 232 907.1 107" xml:space="preserve">
<text transform="matrix(1 0 0 1 92.7139 313.9618)" font-family="'Gruppo'" font-size="113.3115">HEADPHONIC</text>
<g>
	<path d="M930.1,282.5v0.3c0,20.5-5.1,40.7-13.9,55.5c-0.1,0.2-0.3,0.5-0.4,0.7h4.7c8.4-14.8,13.6-34.5,13.6-56.2v-0.3
		c0-19.3-4.1-36.8-11.1-50.5h-4.6C926,245.9,930.1,263.6,930.1,282.5z"/>
	<path d="M27,284.4c0,20.3,4.9,39.5,13.8,54.6h4.8c-9-14.1-14.6-33.5-14.6-54.6v-1.9c0-18.8,4.4-36.5,12.3-50.5h-4.6
		C31.4,245.8,27,263.4,27,282.5V284.4z"/>
</g>
</svg>
