<?xml version="1.0" encoding="utf-8"?>
<!-- Generator: Adobe Illustrator 17.1.0, SVG Export Plug-In . SVG Version: 6.00 Build 0)  -->
<!DOCTYPE svg PUBLIC "-//W3C//DTD SVG 1.1//EN" "http://www.w3.org/Graphics/SVG/1.1/DTD/svg11.dtd">
<svg version="1.1" id="Layer_1" xmlns="http://www.w3.org/2000/svg" xmlns:xlink="http://www.w3.org/1999/xlink" x="0px" y="0px"
	 viewBox="25 455.4 1046.4 113.2" enable-background="new 25 455.4 1046.4 113.2" xml:space="preserve">
<text transform="matrix(1 0 0 1 96.5459 542.1221)" font-family="'Gruppo'" font-size="119.9196">HEADPHONICS</text>
<g>
	<path d="M1066.8,508.8v0.3c0,21.7-5.9,43.1-16,58.7c-0.1,0.2-0.3,0.5-0.5,0.7h5.4c9.7-15.7,15.7-36.5,15.7-59.5v-0.3
		c0-20.4-4.7-38.9-12.8-53.4h-5.3C1062,470.1,1066.8,488.8,1066.8,508.8z"/>
	<path d="M25,510.8c0,21.5,5.7,41.8,15.9,57.8h5.5c-10.4-14.9-16.8-35.5-16.8-57.8v-2c0-19.9,5.1-38.6,14.2-53.4h-5.3
		C30.1,470,25,488.6,25,508.8V510.8z"/>
</g>
</svg>
